<?xml version="1.0" encoding="utf-8"?>
<svg viewBox="0 0 165 65" xmlns="http://www.w3.org/2000/svg" xmlns:bx="https://boxy-svg.com" height="65px">
  <defs>
    <radialGradient id="gradient-1" gradientUnits="userSpaceOnUse" cx="152.286" cy="126.898" r="330" gradientTransform="matrix(0.638467, -1.091841, 1.097297, 0.641658, 52.656119, 215.401816)">
      <stop offset="0" style="stop-color: rgb(0, 170, 237);"/>
      <stop offset="1" style="stop-color: rgb(0, 145, 202);"/>
    </radialGradient>
    <linearGradient id="gradient-0" gradientUnits="userSpaceOnUse" x1="330" y1="0" x2="330" y2="660" gradientTransform="matrix(0.980745, -0.195296, 0.195753, 0.983035, -58.734308, 67.665557)">
      <stop offset="0" style="stop-color: rgb(152, 226, 255);"/>
      <stop offset="1" style="stop-color: rgb(78, 193, 239);"/>
    </linearGradient>
    <bx:grid x="0" y="0" width="186" height="80"/>
  </defs>
  <g transform="matrix(0.341978, 0, 0, 0.341978, -0.383626, 0.22259)">
    <g transform="matrix(0.283555, 0, 0, 0.283555, 3.122751, 1.671054)">
      <title>Logo</title>
      <circle style="fill: url(&quot;#gradient-1&quot;); stroke: url(&quot;#gradient-0&quot;); paint-order: fill; stroke-width: 10.3125px;" cx="329.929" cy="326.968" r="330">
        <title>Main circle</title>
      </circle>
      <g transform="matrix(0.902343, 0, 0, 0.902343, -168.322601, 413.713196)">
        <title>Inner circles</title>
        <rect x="100.641" y="100.641" transform="matrix(0.707107, -0.707107, 0.707107, 0.707107, 94.580246, -101.848038)" class="st5" width="444.467" height="444.467" style="stroke-miterlimit: 2; fill: rgb(179, 233, 255); stroke-width: 11.4286px; stroke: rgb(79, 193, 239);"/>
        <rect x="100.641" y="100.641" transform="matrix(0, 1, -1, 0, 874.13208, -424.748901)" class="st6" width="444.474" height="444.474" style="stroke-miterlimit: 2; fill: rgb(79, 193, 239); stroke: rgb(179, 233, 255); stroke-width: 11.4286px;"/>
        <circle class="st7" cx="552.244" cy="-100.84" r="217.143" style="stroke-miterlimit: 1.1061; fill: rgb(255, 255, 255); stroke-width: 11.4286px; stroke: rgb(178, 233, 255);"/>
        <circle class="st8" cx="549.492" cy="-100.15" r="111.289" style="stroke-miterlimit: 1.1061; fill: rgb(0, 145, 202); stroke-width: 11.4286px; stroke: rgb(79, 193, 239);"/>
      </g>
    </g>
    <g transform="matrix(1, 0, 0, 1, -3.848826, -4.564161)" style="">
      <title>Text</title>
      <path d="M 224.881 62.515 L 224.553 57.355 L 249.287 53.997 Q 248.959 49.493 246.175 46.585 Q 243.39 43.678 238.476 43.678 Q 233.398 43.678 230.081 47.323 Q 226.764 50.967 226.764 57.765 L 226.764 59.567 Q 227.338 66.119 231.064 69.517 Q 234.791 72.916 241.261 72.916 Q 244.7 72.916 247.485 71.77 Q 250.27 70.623 251.908 69.313 Q 252.809 69.886 253.341 70.664 Q 253.873 71.442 253.873 72.425 Q 253.873 73.981 252.112 75.332 Q 250.352 76.684 247.444 77.503 Q 244.537 78.322 240.933 78.322 Q 234.627 78.322 229.999 76.029 Q 225.372 73.735 222.874 69.19 Q 220.376 64.644 220.376 58.092 Q 220.376 53.424 221.727 49.78 Q 223.079 46.135 225.495 43.596 Q 227.911 41.057 231.269 39.706 Q 234.627 38.355 238.558 38.355 Q 243.554 38.355 247.362 40.484 Q 251.171 42.613 253.341 46.422 Q 255.511 50.23 255.511 55.144 Q 255.511 56.946 254.692 57.724 Q 253.873 58.502 252.399 58.666 Z M 278.522 72.998 Q 281.962 72.998 284.214 72.302 Q 286.466 71.606 287.449 70.951 L 287.449 59.075 L 277.294 60.14 Q 273.035 60.468 270.987 62.024 Q 268.94 63.58 268.94 66.528 Q 268.94 69.558 271.356 71.278 Q 273.772 72.998 278.522 72.998 Z M 278.44 38.355 Q 285.566 38.355 289.742 41.549 Q 293.919 44.743 293.919 51.622 L 293.919 71.033 Q 293.919 72.834 293.223 73.776 Q 292.527 74.718 291.135 75.537 Q 289.169 76.602 285.893 77.503 Q 282.617 78.404 278.522 78.404 Q 270.824 78.404 266.606 75.373 Q 262.388 72.343 262.388 66.61 Q 262.388 61.287 265.951 58.461 Q 269.513 55.635 275.819 55.062 L 287.449 53.916 L 287.449 51.622 Q 287.449 47.527 284.992 45.644 Q 282.535 43.76 278.358 43.76 Q 275 43.76 271.929 44.743 Q 268.858 45.726 266.483 46.954 Q 265.828 46.381 265.295 45.603 Q 264.763 44.825 264.763 44.006 Q 264.763 41.876 267.138 40.73 Q 269.349 39.583 272.257 38.969 Q 275.164 38.355 278.44 38.355 Z M 332.576 67.183 Q 332.576 72.425 328.727 75.373 Q 324.877 78.322 317.588 78.322 Q 311.364 78.322 307.433 76.397 Q 303.502 74.472 303.502 72.179 Q 303.502 71.196 304.034 70.255 Q 304.566 69.313 305.631 68.739 Q 307.842 70.296 310.791 71.606 Q 313.739 72.916 317.506 72.916 Q 326.024 72.916 326.024 67.183 Q 326.024 64.808 324.591 63.293 Q 323.158 61.778 320.373 61.123 L 313.575 59.321 Q 308.579 58.092 306.286 55.513 Q 303.993 52.933 303.993 49.083 Q 303.993 44.743 307.515 41.549 Q 311.036 38.355 318.244 38.355 Q 322.093 38.355 324.959 39.133 Q 327.826 39.911 329.423 41.18 Q 331.02 42.45 331.02 43.924 Q 331.02 44.988 330.488 45.807 Q 329.955 46.626 329.054 47.036 Q 328.072 46.381 326.556 45.603 Q 325.041 44.825 322.994 44.292 Q 320.946 43.76 318.489 43.76 Q 314.886 43.76 312.674 45.152 Q 310.463 46.545 310.463 49.083 Q 310.463 50.885 311.733 52.237 Q 313.002 53.588 315.787 54.243 L 321.438 55.635 Q 327.007 56.946 329.791 59.771 Q 332.576 62.597 332.576 67.183 Z M 348.957 68.821 Q 347.565 66.201 345.599 61.737 Q 343.634 57.273 341.545 51.745 Q 339.457 46.217 337.573 40.484 Q 338.146 39.665 339.088 39.174 Q 340.03 38.682 341.095 38.682 Q 342.487 38.682 343.388 39.419 Q 344.289 40.156 344.862 41.876 Q 347.319 48.756 350.022 55.554 Q 352.725 62.351 356.001 69.64 L 356.328 69.64 Q 358.048 66.201 359.932 61.041 Q 361.816 55.881 363.535 50.148 Q 365.255 44.415 366.402 39.337 Q 366.975 39.092 367.671 38.887 Q 368.368 38.682 369.187 38.682 Q 370.579 38.682 371.48 39.378 Q 372.381 40.074 372.381 41.467 Q 372.381 42.777 371.644 45.848 Q 370.906 48.92 369.637 52.974 Q 368.368 57.028 366.689 61.573 Q 365.01 66.119 363.085 70.5 Q 361.16 74.882 359.195 78.404 Q 355.427 85.365 352.315 89.092 Q 349.203 92.818 346.582 92.818 Q 344.698 92.818 343.675 91.835 Q 342.651 90.852 342.405 89.542 Q 344.207 87.986 346.459 85.406 Q 348.712 82.826 350.8 79.837 Q 352.888 76.848 354.199 74.145 Q 352.807 73.735 351.619 72.671 Q 350.431 71.606 348.957 68.821 Z" style="line-height: 191.825px; text-wrap-mode: nowrap;"/>
      <path d="M 251.685 148.756 Q 251.685 154.489 247.426 157.724 Q 243.167 160.96 235.059 160.96 Q 228.507 160.96 224.33 158.994 Q 220.153 157.028 220.153 153.752 Q 220.153 152.36 220.809 151.172 Q 221.464 149.985 222.529 149.33 Q 224.822 150.804 227.852 151.951 Q 230.882 153.097 234.732 153.097 Q 241.693 153.097 241.693 148.838 Q 241.693 147.037 240.465 145.931 Q 239.236 144.825 236.697 144.334 L 232.029 143.105 Q 226.05 141.795 223.143 139.01 Q 220.235 136.226 220.235 131.557 Q 220.235 126.398 224.494 123.081 Q 228.753 119.764 236.288 119.764 Q 240.219 119.764 243.331 120.542 Q 246.443 121.32 248.204 122.794 Q 249.965 124.268 249.965 126.316 Q 249.965 127.708 249.351 128.814 Q 248.737 129.919 247.754 130.493 Q 246.771 129.919 245.092 129.223 Q 243.413 128.527 241.284 128.077 Q 239.154 127.626 237.025 127.626 Q 233.831 127.626 231.988 128.65 Q 230.145 129.674 230.145 131.557 Q 230.145 132.95 231.21 133.933 Q 232.275 134.915 234.814 135.489 L 238.99 136.471 Q 245.624 138.028 248.655 141.017 Q 251.685 144.006 251.685 148.756 Z M 280.396 127.954 Q 275.482 127.954 272.165 131.148 Q 268.849 134.342 268.849 140.485 Q 268.849 146.545 272.043 149.657 Q 275.237 152.77 280.315 152.77 Q 283.345 152.77 285.433 151.991 Q 287.522 151.213 289.078 150.313 Q 290.306 151.05 291.002 152.073 Q 291.699 153.097 291.699 154.571 Q 291.699 157.356 288.341 159.117 Q 284.983 160.878 279.496 160.878 Q 273.271 160.878 268.562 158.625 Q 263.853 156.373 261.191 151.787 Q 258.529 147.2 258.529 140.485 Q 258.529 133.523 261.355 128.937 Q 264.18 124.35 268.889 122.098 Q 273.599 119.846 279.25 119.846 Q 284.655 119.846 287.931 121.729 Q 291.207 123.613 291.207 126.398 Q 291.207 127.626 290.552 128.691 Q 289.897 129.756 288.996 130.411 Q 287.358 129.428 285.31 128.691 Q 283.263 127.954 280.396 127.954 Z M 299.585 109.444 Q 299.585 107.069 301.264 105.431 Q 302.943 103.793 305.482 103.793 Q 308.103 103.793 309.7 105.431 Q 311.297 107.069 311.297 109.444 Q 311.297 111.738 309.7 113.417 Q 308.103 115.096 305.482 115.096 Q 302.943 115.096 301.264 113.417 Q 299.585 111.738 299.585 109.444 Z M 300.404 138.109 L 310.56 138.109 L 310.56 159.567 Q 309.905 159.813 308.676 160.018 Q 307.448 160.222 305.973 160.222 Q 303.189 160.222 301.796 159.199 Q 300.404 158.175 300.404 155.554 Z M 310.56 143.269 L 300.404 143.269 L 300.404 121.32 Q 301.059 121.074 302.329 120.869 Q 303.598 120.665 305.072 120.665 Q 307.939 120.665 309.249 121.688 Q 310.56 122.712 310.56 125.415 Z M 325.847 145.48 L 325.438 138.437 L 347.387 135.161 Q 347.141 132.049 345.012 129.756 Q 342.883 127.462 338.788 127.462 Q 334.611 127.462 331.826 130.37 Q 329.042 133.277 328.96 138.683 L 329.205 142.942 Q 329.942 148.183 333.259 150.64 Q 336.576 153.097 341.654 153.097 Q 345.094 153.097 348.042 152.073 Q 350.991 151.05 352.711 149.821 Q 353.857 150.558 354.553 151.664 Q 355.25 152.77 355.25 154.08 Q 355.25 156.209 353.366 157.724 Q 351.482 159.24 348.288 160.059 Q 345.094 160.878 340.999 160.878 Q 334.693 160.878 329.82 158.543 Q 324.947 156.209 322.203 151.541 Q 319.459 146.873 319.459 139.911 Q 319.459 134.915 321.015 131.148 Q 322.571 127.381 325.233 124.883 Q 327.895 122.385 331.417 121.115 Q 334.938 119.846 338.788 119.846 Q 344.193 119.846 348.247 122.016 Q 352.301 124.186 354.635 128.036 Q 356.969 131.885 356.969 136.881 Q 356.969 139.174 355.782 140.28 Q 354.594 141.385 352.465 141.631 Z M 400.902 134.424 L 400.902 142.368 L 390.828 142.368 L 390.828 134.833 Q 390.828 131.23 388.781 129.551 Q 386.733 127.872 383.294 127.872 Q 380.755 127.872 378.748 128.486 Q 376.742 129.1 375.185 129.919 L 375.185 142.368 L 365.112 142.368 L 365.112 129.264 Q 365.112 127.299 365.931 126.029 Q 366.75 124.76 368.388 123.695 Q 370.845 122.057 374.735 120.951 Q 378.625 119.846 383.375 119.846 Q 391.647 119.846 396.275 123.531 Q 400.902 127.217 400.902 134.424 Z M 365.112 138.355 L 375.185 138.355 L 375.185 159.567 Q 374.53 159.813 373.302 160.018 Q 372.073 160.222 370.599 160.222 Q 367.814 160.222 366.463 159.199 Q 365.112 158.175 365.112 155.554 Z M 390.828 138.355 L 400.902 138.355 L 400.902 159.567 Q 400.329 159.813 399.059 160.018 Q 397.79 160.222 396.398 160.222 Q 393.531 160.222 392.18 159.199 Q 390.828 158.175 390.828 155.554 Z M 431.356 127.954 Q 426.442 127.954 423.125 131.148 Q 419.808 134.342 419.808 140.485 Q 419.808 146.545 423.002 149.657 Q 426.196 152.77 431.274 152.77 Q 434.304 152.77 436.393 151.991 Q 438.481 151.213 440.037 150.313 Q 441.266 151.05 441.962 152.073 Q 442.658 153.097 442.658 154.571 Q 442.658 157.356 439.3 159.117 Q 435.942 160.878 430.455 160.878 Q 424.231 160.878 419.521 158.625 Q 414.812 156.373 412.15 151.787 Q 409.489 147.2 409.489 140.485 Q 409.489 133.523 412.314 128.937 Q 415.14 124.35 419.849 122.098 Q 424.558 119.846 430.209 119.846 Q 435.615 119.846 438.891 121.729 Q 442.167 123.613 442.167 126.398 Q 442.167 127.626 441.512 128.691 Q 440.856 129.756 439.956 130.411 Q 438.318 129.428 436.27 128.691 Q 434.223 127.954 431.356 127.954 Z M 454.355 145.48 L 453.945 138.437 L 475.894 135.161 Q 475.649 132.049 473.519 129.756 Q 471.39 127.462 467.295 127.462 Q 463.118 127.462 460.333 130.37 Q 457.549 133.277 457.467 138.683 L 457.713 142.942 Q 458.45 148.183 461.767 150.64 Q 465.084 153.097 470.161 153.097 Q 473.601 153.097 476.55 152.073 Q 479.498 151.05 481.218 149.821 Q 482.365 150.558 483.061 151.664 Q 483.757 152.77 483.757 154.08 Q 483.757 156.209 481.873 157.724 Q 479.989 159.24 476.795 160.059 Q 473.601 160.878 469.506 160.878 Q 463.2 160.878 458.327 158.543 Q 453.454 156.209 450.71 151.541 Q 447.967 146.873 447.967 139.911 Q 447.967 134.915 449.523 131.148 Q 451.079 127.381 453.741 124.883 Q 456.402 122.385 459.924 121.115 Q 463.446 119.846 467.295 119.846 Q 472.7 119.846 476.754 122.016 Q 480.808 124.186 483.143 128.036 Q 485.477 131.885 485.477 136.881 Q 485.477 139.174 484.289 140.28 Q 483.102 141.385 480.972 141.631 Z" style="line-height: 191.825px; text-wrap-mode: nowrap;"/>
    </g>
  </g>
</svg>