<?xml version="1.0" encoding="utf-8"?>
<svg viewBox="0 0 64 64" xmlns="http://www.w3.org/2000/svg" xmlns:bx="https://boxy-svg.com" height="64px">
  <defs>
    <bx:grid x="0" y="0" width="64" height="64"/>
  </defs>
  <g transform="matrix(0.341978, 0, 0, 0.341978, -1.07513, -0.27737)">
    <g transform="matrix(0.283555, 0, 0, 0.283555, 3.164114, 1.670931)">
      <title>Logo</title>
      <path d="M 659.929 326.968 C 659.929 509.222 512.183 656.968 329.929 656.968 C 147.675 656.968 -0.071 509.222 -0.071 326.968 C -0.071 144.714 147.675 -3.032 329.929 -3.032 C 512.183 -3.032 659.929 144.714 659.929 326.968 Z M 410.536 503.247 L 393.858 497.4 C 393.858 497.4 364.812 487.227 350.879 481.398 C 337.248 475.722 324.085 469.521 310.739 462.801 C 298.254 456.53 273.518 442.522 273.518 442.522 L 234.588 419.476 C 234.588 419.476 241.213 449.831 245.578 464.823 C 248.941 476.371 252.871 487.573 257.178 498.993 C 261.388 510.077 265.951 521.917 271.474 532.899 C 276.424 542.687 282.626 553.733 289.701 563.535 C 295.972 572.087 304.664 583.437 315.95 591.648 C 322.734 596.056 330.799 600.687 339.172 601.951 C 344.956 602.824 351.217 602.178 356.599 599.887 C 365.353 596.16 373.617 587.599 378.665 581.782 C 386.844 571.632 392.484 559.335 396.577 549.878 C 400.761 539.987 406.23 520.823 406.23 520.823 Z M 523.019 379.727 L 517.087 372.649 L 511.156 365.573 L 496.723 377.085 C 496.723 377.085 483.018 388.022 476.111 393.148 C 469.498 398.067 455.656 407.629 455.656 407.629 L 447.846 413.026 L 447.502 422.507 C 447.502 422.507 446.762 443.269 445.99 453.435 C 445.259 463.276 442.971 483.268 442.971 483.268 L 440.984 500.682 L 458.185 503.992 C 458.185 503.992 483.623 508.775 498.629 509.09 C 507.664 509.183 524.478 508.554 535.574 505.024 C 543.005 502.266 552.54 498.666 558.549 492.3 C 562.717 487.884 565.545 481.437 566.44 475.882 C 568.143 465.309 565.549 452.545 562.986 443.941 C 558.323 429.811 550.167 416.79 543.541 406.465 C 537.206 396.74 523.019 379.727 523.019 379.727 Z M 461.96 173.227 C 453.285 173.969 436.093 176.836 436.093 176.836 L 424.185 179.177 L 429.985 199.589 C 429.985 199.589 436.121 223.888 438.473 235.829 C 441.357 250.393 443.589 263.791 445.507 278.459 C 447.416 292.919 449.962 321.789 449.962 321.789 L 451.482 357.734 L 481.446 336.463 C 481.446 336.463 507.809 315.119 519.894 302.859 C 529.885 292.607 541.917 278.641 548.048 269.725 C 552.607 263.032 559.587 252.08 562.88 242.625 C 566.424 232.454 568.462 221.224 567.215 210.601 C 566.606 205.404 562.752 197.485 558.192 192.533 C 551.861 185.656 543.027 181.45 534.22 177.984 C 523.312 174.153 507.484 172.104 495.413 171.725 C 480.352 171.387 471.398 172.418 461.96 173.227 Z M 251.163 137.569 L 268.08 143.254 C 268.08 143.254 293.084 151.64 304.961 156.556 C 317.129 161.556 340.945 172.796 341.266 172.947 L 348.066 176.158 L 410.39 155.855 L 402.824 137.076 C 402.824 137.076 391.908 110.189 384.318 97.129 C 376.68 84.207 369.55 71.529 358.032 59.939 C 350.36 52.675 341.025 43.53 330.214 39.719 C 324.582 37.734 315.975 38.025 312.321 38.837 C 304.391 40.599 297.271 45.157 291.855 49.53 C 281.252 59.417 273.731 73.06 268.795 82.952 C 262.822 95.329 255.859 120.333 255.859 120.333 Z M 135.926 295.222 L 182.688 260.123 C 186.776 257.516 209.757 242.833 223.801 234.798 C 236.464 227.528 262.895 214.024 262.895 214.024 L 299.377 194.799 C 299.377 194.799 275.54 184.136 263.341 179.503 C 251.584 175.038 239.027 171.134 227.581 167.472 C 217.35 164.218 206.429 161.198 195.718 158.926 C 184.142 156.495 170.907 153.808 157.551 153.173 C 144.369 152.689 125.067 152.645 109.798 157.354 C 102.336 159.655 94.895 163.297 89.365 168.81 C 86.174 171.99 83.029 177.726 82.192 182.942 C 79.696 198.49 84.238 218.27 89.315 229.642 C 94.39 240.652 101.26 251.237 107.461 260.215 C 112.831 267.915 124.396 281.614 124.396 281.614 Z M 186.868 452.502 L 208.402 448.837 C 208.402 448.837 201.711 426.101 198.783 414.508 C 195.874 402.99 191.386 379.85 191.386 379.85 L 185.126 375.649 C 185.126 375.649 167.453 362.513 159.093 355.688 C 149.485 347.871 130.665 331.097 130.665 331.097 L 118.891 320.613 L 106.495 330.265 C 106.495 330.265 97.371 337.712 86 352.894 C 77.779 364.352 67.412 380.708 63.399 395.9 C 61.782 403.648 60.94 412.95 63.111 421.047 C 64.611 426.642 68.392 432.474 71.978 435.993 C 78.784 442.672 87.971 447.94 96.365 450.949 C 114.343 456.649 134.059 456.775 149.7 456.659 C 162.621 456.446 186.868 452.502 186.868 452.502 Z M 179.245 310.944 L 169.978 317.98 L 178.761 325.615 C 178.761 325.615 202.62 346.347 215.365 355.95 C 233.915 369.897 253.296 383.344 273.296 395.373 C 297.84 410.109 323.502 423.517 349.472 435.458 C 363.802 442.029 393.091 452.748 393.091 452.748 L 404.413 456.891 L 405.739 444.907 C 405.739 444.907 408.585 419.163 408.971 406.037 C 409.742 378.586 409.102 350.742 406.767 323.326 C 404.803 300.522 401.099 277.757 396.935 255.506 C 394.52 242.648 388.211 217.533 388.211 217.533 L 385.883 208.271 L 376.645 210.689 C 376.645 210.689 351.794 217.202 339.538 221.704 C 315.935 230.435 292.852 241.116 270.6 252.423 C 253.662 261.039 236.924 270.64 220.944 280.934 C 206.457 290.289 179.245 310.944 179.245 310.944 Z" style="paint-order: fill; stroke-width: 10.3125px;"/>
      <g style="visibility: hidden;">
        <path style="stroke-width: 10.3125px; fill: rgb(255, 255, 255);" d="M 223.595 279.744 C 239.575 269.45 256.313 259.849 273.251 251.233 C 295.503 239.926 318.586 229.245 342.189 220.514 C 354.445 216.012 379.296 209.499 379.296 209.499 L 388.534 207.081 L 390.862 216.343 C 390.862 216.343 397.171 241.458 399.586 254.316 C 403.75 276.567 407.454 299.332 409.418 322.136 C 411.753 349.552 412.393 377.396 411.622 404.847 C 411.236 417.973 408.39 443.717 408.39 443.717 L 407.064 455.701 L 395.742 451.558 C 395.742 451.558 366.453 440.839 352.123 434.268 C 326.153 422.327 300.491 408.919 275.947 394.183 C 255.947 382.154 236.566 368.707 218.016 354.76 C 205.271 345.157 181.412 324.425 181.412 324.425 L 172.629 316.79 L 181.896 309.754 C 181.896 309.754 209.108 289.099 223.595 279.744 Z"/>
        <path style="stroke-width: 10.3125px; fill: rgb(255, 255, 255);" d="M 152.351 455.469 C 136.71 455.585 116.994 455.459 99.016 449.759 C 90.622 446.75 81.435 441.482 74.629 434.803 C 71.043 431.284 67.262 425.452 65.762 419.857 C 63.591 411.76 64.433 402.458 66.05 394.71 C 70.063 379.518 80.43 363.162 88.651 351.704 C 100.022 336.522 109.146 329.075 109.146 329.075 L 121.542 319.423 L 133.316 329.907 C 133.316 329.907 152.136 346.681 161.744 354.498 C 170.104 361.323 187.777 374.459 187.777 374.459 L 194.037 378.66 C 194.037 378.66 198.525 401.8 201.434 413.318 C 204.362 424.911 211.053 447.647 211.053 447.647 L 189.519 451.312 C 189.519 451.312 165.272 455.256 152.351 455.469 Z"/>
        <path style="stroke-width: 10.3125px; fill: rgb(255, 255, 255);" d="M 127.047 280.424 C 127.047 280.424 115.482 266.725 110.112 259.025 C 103.911 250.047 97.041 239.462 91.966 228.452 C 86.889 217.08 82.347 197.3 84.843 181.752 C 85.68 176.536 88.825 170.8 92.016 167.62 C 97.546 162.107 104.987 158.465 112.449 156.164 C 127.718 151.455 147.02 151.499 160.202 151.983 C 173.558 152.618 186.793 155.305 198.369 157.736 C 209.08 160.008 220.001 163.028 230.232 166.282 C 241.678 169.944 254.235 173.848 265.992 178.313 C 278.191 182.946 302.028 193.609 302.028 193.609 L 265.546 212.834 C 265.546 212.834 239.115 226.338 226.452 233.608 C 212.408 241.643 189.427 256.326 185.339 258.933 L 138.577 294.032 L 127.047 280.424 Z"/>
        <path style="stroke-width: 10.3125px; fill: rgb(255, 255, 255);" d="M 258.51 119.143 C 258.51 119.143 265.473 94.139 271.446 81.762 C 276.382 71.87 283.903 58.227 294.506 48.34 C 299.922 43.967 307.042 39.409 314.972 37.647 C 318.626 36.835 327.233 36.544 332.865 38.529 C 343.676 42.34 353.011 51.485 360.683 58.749 C 372.201 70.339 379.331 83.017 386.969 95.939 C 394.559 108.999 405.475 135.886 405.475 135.886 L 413.041 154.665 L 350.717 174.968 L 343.917 171.757 C 343.596 171.606 319.78 160.366 307.612 155.366 C 295.735 150.45 270.731 142.064 270.731 142.064 L 253.814 136.379 L 258.51 119.143 Z"/>
        <path style="stroke-width: 10.3125px; fill: rgb(255, 255, 255);" d="M 498.064 170.535 C 510.135 170.914 525.963 172.963 536.871 176.794 C 545.678 180.26 554.512 184.466 560.843 191.343 C 565.403 196.295 569.257 204.214 569.866 209.411 C 571.113 220.034 569.075 231.264 565.531 241.435 C 562.238 250.89 555.258 261.842 550.699 268.535 C 544.568 277.451 532.536 291.417 522.545 301.669 C 510.46 313.929 484.097 335.273 484.097 335.273 L 454.133 356.544 L 452.613 320.599 C 452.613 320.599 450.067 291.729 448.158 277.269 C 446.24 262.601 444.008 249.203 441.124 234.639 C 438.772 222.698 432.636 198.399 432.636 198.399 L 426.836 177.987 L 438.744 175.646 C 438.744 175.646 455.936 172.779 464.611 172.037 C 474.049 171.228 483.003 170.197 498.064 170.535 Z"/>
        <path style="stroke-width: 10.3125px; fill: rgb(255, 255, 255);" d="M 546.192 405.275 C 552.818 415.6 560.974 428.621 565.637 442.751 C 568.2 451.355 570.794 464.119 569.091 474.692 C 568.196 480.247 565.368 486.694 561.2 491.11 C 555.191 497.476 545.656 501.076 538.225 503.834 C 527.129 507.364 510.315 507.993 501.28 507.9 C 486.274 507.585 460.836 502.802 460.836 502.802 L 443.635 499.492 L 445.622 482.078 C 445.622 482.078 447.91 462.086 448.641 452.245 C 449.413 442.079 450.153 421.317 450.153 421.317 L 450.497 411.836 L 458.307 406.439 C 458.307 406.439 472.149 396.877 478.762 391.958 C 485.669 386.832 499.374 375.895 499.374 375.895 L 513.807 364.383 L 519.738 371.459 L 525.67 378.537 C 525.67 378.537 539.857 395.55 546.192 405.275 Z"/>
        <path style="stroke-width: 10.3125px; fill: rgb(255, 255, 255);" d="M 408.881 519.633 C 408.881 519.633 403.412 538.797 399.228 548.688 C 395.135 558.145 389.495 570.442 381.316 580.592 C 376.268 586.409 368.004 594.97 359.25 598.697 C 353.868 600.988 347.607 601.634 341.823 600.761 C 333.45 599.497 325.385 594.866 318.601 590.458 C 307.315 582.247 298.623 570.897 292.352 562.345 C 285.277 552.543 279.075 541.497 274.125 531.709 C 268.602 520.727 264.039 508.887 259.829 497.803 C 255.522 486.383 251.592 475.181 248.229 463.633 C 243.864 448.641 237.239 418.286 237.239 418.286 L 276.169 441.332 C 276.169 441.332 300.905 455.34 313.39 461.611 C 326.736 468.331 339.899 474.532 353.53 480.208 C 367.463 486.037 396.509 496.21 396.509 496.21 L 413.187 502.057 L 408.881 519.633 Z"/>
      </g>
      <g style="visibility: hidden;">
        <title>Inner elements</title>
        <path style="stroke-width: 10.3125px; fill: rgb(255, 255, 255);" d="M 223.605 277.217 C 240.499 266.334 258.194 256.184 276.101 247.077 C 299.626 235.123 324.028 223.831 348.981 214.601 C 361.937 209.842 388.21 202.956 388.21 202.956 L 397.975 200.401 L 400.437 210.192 C 400.437 210.192 407.106 236.742 409.66 250.335 C 414.062 273.86 417.976 297.925 420.053 322.033 C 422.522 351.017 423.198 380.452 422.384 409.473 C 421.975 423.35 418.967 450.566 418.967 450.566 L 417.564 463.234 L 405.595 458.856 C 405.595 458.856 374.633 447.523 359.482 440.577 C 332.027 427.952 304.898 413.778 278.951 398.2 C 257.806 385.483 237.318 371.267 217.707 356.522 C 204.233 346.37 179.01 324.453 179.01 324.453 L 169.725 316.382 L 179.522 308.943 C 179.522 308.943 208.29 287.107 223.605 277.217 Z"/>
        <path style="stroke-width: 10.3125px; fill: rgb(255, 255, 255);" d="M 148.287 462.99 C 131.753 463.113 110.91 462.979 91.904 456.953 C 83.028 453.773 68.881 446.066 60.618 435.192 L 59.919 434.187 L 59.728 433.76 L 59.535 433.328 L 59.377 432.972 C 54.964 421.842 55.343 406.948 57.052 398.758 C 61.295 382.696 72.254 365.405 80.945 353.292 C 92.966 337.241 102.614 329.369 102.614 329.369 L 115.717 319.165 L 125.05 327.475 L 128.165 330.248 C 128.165 330.248 148.061 347.982 158.218 356.246 C 167.057 363.46 185.739 377.347 185.739 377.347 L 192.358 381.789 C 192.358 381.789 197.103 406.251 200.178 418.429 C 203.273 430.685 210.346 454.721 210.346 454.721 L 187.582 458.596 C 187.582 458.596 161.948 462.764 148.287 462.99 Z"/>
        <path style="stroke-width: 10.3125px; fill: rgb(255, 255, 255);" d="M 121.537 277.936 C 121.537 277.936 109.311 263.454 103.633 255.314 C 97.079 245.822 89.816 234.631 84.45 222.993 C 79.082 210.971 72.666 189.4 77.476 171.121 L 77.905 169.782 L 78.17 169.32 L 78.44 168.851 L 78.678 168.443 C 86.18 156.851 98.782 149.372 106.105 146.571 C 124.606 140.687 142.651 141.639 156.588 142.151 C 170.707 142.823 184.699 145.663 196.936 148.234 C 208.261 150.635 219.806 153.828 230.623 157.268 C 242.722 161.14 265.972 169.986 265.972 169.986 L 308.015 186.002 L 267.954 206.482 C 267.954 206.482 240.013 220.758 226.626 228.444 C 211.779 236.938 187.484 252.46 183.161 255.217 L 133.726 292.322 L 127.632 285.13 L 121.537 277.936 Z"/>
        <path style="stroke-width: 10.3125px; fill: rgb(255, 255, 255);" d="M 260.517 107.434 C 260.517 107.434 267.878 81.001 274.193 67.915 C 279.411 57.457 287.362 43.035 298.57 32.582 C 304.297 27.96 315.6 22.121 325.986 21.005 L 327.267 20.927 L 328.239 21.061 L 328.666 21.12 C 345 24.06 360.421 35.907 368.532 43.586 C 380.709 55.839 388.246 69.243 396.32 82.902 C 404.344 96.71 415.885 125.135 415.885 125.135 L 423.883 144.987 L 357.996 166.45 L 356.201 165.603 L 354.405 164.755 L 350.808 163.057 C 350.468 162.897 325.29 151.013 312.427 145.727 C 299.869 140.531 273.436 131.666 273.436 131.666 L 255.553 125.656 L 258.033 116.554 L 260.517 107.434 Z"/>
        <path style="stroke-width: 10.3125px; fill: rgb(255, 255, 255);" d="M 513.768 161.765 C 526.529 162.165 543.262 164.33 554.794 168.38 C 564.104 172.045 573.443 176.492 580.137 183.761 C 584.958 188.996 589.032 197.369 589.676 202.863 C 590.993 214.094 588.84 225.965 585.093 236.719 C 581.611 246.714 574.233 258.292 569.413 265.368 C 562.931 274.794 550.211 289.558 539.648 300.396 C 526.873 313.357 499.002 335.922 499.002 335.922 L 467.325 358.409 L 465.718 320.408 C 465.718 320.408 463.027 289.888 461.008 274.601 C 458.981 259.095 456.62 244.93 453.572 229.533 C 451.086 216.909 444.598 191.221 444.598 191.221 L 438.467 169.643 L 451.056 167.167 C 451.056 167.167 469.232 164.136 478.402 163.351 C 488.38 162.497 497.845 161.407 513.768 161.765 Z"/>
        <path style="stroke-width: 10.3125px; fill: rgb(255, 255, 255);" d="M 564.648 409.925 C 571.653 420.841 580.275 434.607 585.204 449.544 C 587.914 458.64 590.724 476.723 586.667 490.265 L 586.146 491.746 L 585.511 492.732 L 585.219 493.18 C 576.487 505.166 564.082 511.204 556.225 514.12 C 544.494 517.853 526.719 518.517 517.167 518.418 C 501.304 518.085 474.412 513.029 474.412 513.029 L 456.227 509.53 L 456.752 504.928 L 458.327 491.12 C 458.327 491.12 460.746 469.986 461.519 459.582 C 462.335 448.833 463.118 426.886 463.118 426.886 L 463.482 416.862 L 467.608 414.01 L 469.673 412.582 L 471.737 411.156 C 471.737 411.156 486.372 401.048 493.362 395.847 C 500.664 390.429 515.152 378.867 515.152 378.867 L 530.411 366.696 L 536.681 374.176 L 542.953 381.659 C 542.953 381.659 557.951 399.645 564.648 409.925 Z"/>
        <path style="stroke-width: 10.3125px; fill: rgb(255, 255, 255);" d="M 419.486 530.822 C 419.486 530.822 413.704 551.082 409.281 561.539 C 404.954 571.533 398.992 584.538 390.345 595.265 C 385.008 601.417 377.198 610.944 364.727 614.967 L 351.18 616.697 C 338.512 616.825 331.216 610.352 324.044 605.701 C 312.113 597.018 302.923 585.014 296.293 575.982 C 288.814 565.615 282.257 553.936 277.024 543.589 C 271.187 531.979 266.362 519.463 261.912 507.744 C 257.359 495.671 253.203 483.829 249.648 471.62 C 245.034 455.771 238.03 423.681 238.03 423.681 L 279.185 448.044 C 279.185 448.044 305.336 462.853 318.535 469.483 C 332.644 476.587 346.56 483.143 360.97 489.143 C 375.699 495.306 406.406 506.06 406.406 506.06 L 424.037 512.241 L 419.486 530.822 Z"/>
        <path d="M 607.989 324.859 C 607.989 332.237 606.051 339.44 602.361 346.397 C 598.672 353.354 593.23 360.064 586.222 366.457 C 579.214 372.85 570.64 378.925 560.684 384.61 C 550.729 390.296 539.393 395.591 526.861 400.426 C 514.33 405.262 500.604 409.636 485.868 413.477 C 471.132 417.318 455.386 420.626 438.817 423.33 C 422.248 426.034 401.365 428.296 383.334 429.72" style="stroke-width: 10.3125px; fill: none; stroke: rgb(255, 255, 255);" transform="matrix(0.104527004063, 0.994522094727, -0.994522094727, 0.104527004063, 619.48190837981, -38.285362060459)"/>
        <path d="M 161.554 409.284 C 152.614 406.773 147.672 405.262 135.141 400.426 C 122.61 395.591 111.274 390.296 101.319 384.61 C 91.363 378.925 82.788 372.85 75.78 366.457 C 68.772 360.064 63.33 353.354 59.64 346.397 C 55.951 339.44 54.013 332.237 54.013 324.859 C 54.013 317.482 55.951 310.279 59.64 303.322 C 63.33 296.365 68.772 289.654 75.78 283.261 C 82.788 276.869 91.363 270.794 101.319 265.108 C 111.274 259.423 122.61 254.127 135.141 249.292 C 147.672 244.458 161.399 240.084 176.135 236.243 C 190.871 232.402 206.616 229.093 223.185 226.389 C 239.754 223.686 257.147 221.586 275.178 220.162 C 293.209 218.739 311.879 217.991 331.001 217.991 C 350.123 217.991 368.792 218.739 386.824 220.162 C 404.855 221.586 422.248 223.685 438.817 226.389 C 455.386 229.093 471.132 232.402 485.868 236.243 C 500.604 240.084 514.33 244.458 526.861 249.292 C 539.393 254.127 550.729 259.423 560.684 265.108 C 570.64 270.794 579.214 276.869 586.222 283.261 C 593.23 289.654 598.672 296.365 602.361 303.322 C 606.051 310.279 607.989 317.482 607.989 324.859" style="stroke-width: 10.3125px; fill: none; stroke: rgb(255, 255, 255);" transform="matrix(0.104527004063, 0.994522094727, -0.994522094727, 0.104527004063, 619.48190837981, -38.285362060459)"/>
        <path d="M 613.186 325.294 C 613.186 332.672 611.216 339.875 607.463 346.832 C 603.711 353.789 598.177 360.499 591.049 366.892 C 583.921 373.285 575.201 379.36 565.077 385.045 C 554.953 390.731 543.424 396.026 530.68 400.861 C 517.935 405.696 503.976 410.07 488.989 413.911 C 474.003 417.752 457.99 421.06 441.14 423.764 C 424.289 426.468 406.601 428.567 388.263 429.991 C 369.926 431.414 350.939 432.162 331.492 432.162 C 312.045 432.162 293.058 431.414 274.721 429.991 C 256.383 428.567 238.695 426.468 221.844 423.764 C 204.993 421.06 188.98 417.752 173.994 413.911 C 159.008 410.07 145.048 405.696 132.304 400.861 C 119.56 396.026 108.031 390.731 97.907 385.045 C 87.782 379.36 79.062 373.285 71.935 366.892 C 64.808 360.499 59.273 353.789 55.521 346.832 C 51.769 339.875 49.798 332.672 49.798 325.294 C 49.798 317.917 51.769 310.714 55.521 303.757 C 59.273 296.8 64.808 290.089 71.935 283.696 C 79.062 277.304 87.782 271.229 97.907 265.543 C 108.031 259.858 119.56 254.562 132.304 249.727 C 145.048 244.893 159.008 240.519 173.994 236.678 C 188.98 232.837 204.993 229.528 221.844 226.824 C 238.695 224.121 256.383 222.021 274.721 220.597 M 488.99 236.678 C 503.976 240.519 517.936 244.893 530.68 249.727 C 543.424 254.562 554.953 259.858 565.077 265.543 C 575.202 271.229 583.922 277.304 591.049 283.696 C 598.176 290.089 603.711 296.8 607.463 303.757 C 611.215 310.714 613.186 317.917 613.186 325.294" style="stroke-width: 10.3125px; fill: none; stroke: rgb(255, 255, 255); transform-origin: 331.492px 325.294px;" transform="matrix(0.857167, 0.515039, -0.515039, 0.857167, -0.000001, 0.000003)"/>
        <path d="M 596.205 327.099 C 596.205 334.477 594.335 341.68 590.774 348.637 C 587.213 355.594 581.961 362.304 575.197 368.697 C 568.434 375.09 560.158 381.165 550.55 386.85 C 540.942 392.536 530.001 397.831 517.907 402.666 C 505.813 407.501 492.565 411.875 478.343 415.716 C 464.121 419.557 448.925 422.865 432.934 425.569 C 416.943 428.273 412.981 428.422 402.951 429.368 M 197.54 419.946 C 191.448 418.771 193.635 419.557 179.413 415.716 C 165.191 411.875 151.943 407.501 139.849 402.666 C 127.755 397.831 116.814 392.536 107.206 386.85 C 97.598 381.165 89.322 375.09 82.559 368.697 C 75.795 362.304 70.543 355.594 66.982 348.637 C 63.421 341.68 61.551 334.477 61.551 327.099 C 61.551 319.722 63.421 312.519 66.982 305.562 C 70.543 298.605 75.795 291.894 82.559 285.501 C 89.322 279.109 97.598 273.034 107.206 267.348 C 116.814 261.663 127.755 256.367 139.849 251.532 C 151.943 246.698 165.191 242.324 179.413 238.483 C 193.635 234.642 208.831 231.333 224.822 228.629 C 240.813 225.926 257.6 223.826 275.002 222.402 C 292.405 220.979 310.423 220.231 328.878 220.231 C 347.333 220.231 365.351 220.979 382.754 222.402 C 400.156 223.826 416.942 225.925 432.934 228.629 C 448.925 231.333 464.121 234.642 478.343 238.483 C 492.565 242.324 505.813 246.698 517.907 251.532 C 530.001 256.367 540.942 261.663 550.55 267.348 C 560.158 273.034 568.434 279.109 575.197 285.501 C 581.961 291.894 587.213 298.605 590.774 305.562 C 594.335 312.519 596.205 319.722 596.205 327.099" style="stroke-width: 10.3125px; fill: none; stroke: rgb(255, 255, 255); transform-box: fill-box; transform-origin: 50% 50%;" transform="matrix(0.898795, -0.43837, 0.43837, 0.898795, 0.000006, 0.000003)"/>
      </g>
    </g>
  </g>
</svg>